<svg xmlns="http://www.w3.org/2000/svg"><symbol id="timer" viewBox="0 0 24 24">
  <line x1="10" x2="14" y1="2" y2="2" />
  <line x1="12" x2="15" y1="14" y2="11" />
  <circle cx="12" cy="14" r="8" />
</symbol><symbol id="plus" viewBox="0 0 24 24">
  <path d="M5 12h14" />
  <path d="M12 5v14" />
</symbol><symbol id="arrow" viewBox="0 0 24 24">
  <path d="M5 12h14" />
  <path d="m12 5 7 7-7 7" />
</symbol><symbol id="check" viewBox="0 0 24 24">
  <path d="M20 6 9 17l-5-5" />
</symbol><symbol id="settings" viewBox="0 0 24 24">
  <path d="M9.671 4.136a2.34 2.34 0 0 1 4.659 0 2.34 2.34 0 0 0 3.319 1.915 2.34 2.34 0 0 1 2.33 4.033 2.34 2.34 0 0 0 0 3.831 2.34 2.34 0 0 1-2.33 4.033 2.34 2.34 0 0 0-3.319 1.915 2.34 2.34 0 0 1-4.659 0 2.34 2.34 0 0 0-3.32-1.915 2.34 2.34 0 0 1-2.33-4.033 2.34 2.34 0 0 0 0-3.831A2.34 2.34 0 0 1 6.35 6.051a2.34 2.34 0 0 0 3.319-1.915" />
  <circle cx="12" cy="12" r="3" />
</symbol><symbol id="shield" viewBox="0 0 24 24">
  <path d="M20 13c0 5-3.5 7.5-7.66 8.95a1 1 0 0 1-.67-.01C7.5 20.5 4 18 4 13V6a1 1 0 0 1 1-1c2 0 4.5-1.2 6.24-2.72a1.17 1.17 0 0 1 1.52 0C14.51 3.81 17 5 19 5a1 1 0 0 1 1 1z" />
</symbol><symbol id="lock" viewBox="0 0 24 24">
  <rect width="18" height="11" x="3" y="11" rx="2" ry="2" />
  <path d="M7 11V7a5 5 0 0 1 10 0v4" />
</symbol><symbol id="home" viewBox="0 0 24 24">
  <path d="M15 21v-8a1 1 0 0 0-1-1h-4a1 1 0 0 0-1 1v8" />
  <path d="M3 10a2 2 0 0 1 .709-1.528l7-6a2 2 0 0 1 2.582 0l7 6A2 2 0 0 1 21 10v9a2 2 0 0 1-2 2H5a2 2 0 0 1-2-2z" />
</symbol><symbol id="chart" viewBox="0 0 24 24">
  <path d="M5 21v-6" />
  <path d="M12 21V9" />
  <path d="M19 21V3" />
</symbol><symbol id="list" viewBox="0 0 24 24">
  <path d="M13 5h8" />
  <path d="M13 12h8" />
  <path d="M13 19h8" />
  <path d="m3 17 2 2 4-4" />
  <rect x="3" y="4" width="6" height="6" rx="1" />
</symbol><symbol id="user" viewBox="0 0 24 24">
  <path d="M19 21v-2a4 4 0 0 0-4-4H9a4 4 0 0 0-4 4v2" />
  <circle cx="12" cy="7" r="4" />
</symbol><symbol id="bolt" viewBox="0 0 24 24">
  <path d="M15.914 4a1.5 1.5 0 00-2.474-1.561l-9 9A1.5 1.5 0 005.5 14h4.002a.5.5 0 01.471.666L8.086 20a1.5 1.5 0 002.475 1.56l9-9A1.5 1.5 0 0018.5 10h-3.997a.5.5 0 01-.472-.667z" />
</symbol><symbol id="refresh" viewBox="0 0 24 24">
  <path d="M3 12a9 9 0 0 1 9-9 9.75 9.75 0 0 1 6.74 2.74L21 8" />
  <path d="M21 3v5h-5" />
  <path d="M21 12a9 9 0 0 1-9 9 9.75 9.75 0 0 1-6.74-2.74L3 16" />
  <path d="M8 16H3v5" />
</symbol><symbol id="close" viewBox="0 0 24 24">
  <path d="M18 6 6 18" />
  <path d="m6 6 12 12" />
</symbol><symbol id="chevron" viewBox="0 0 24 24">
  <path d="m9 18 6-6-6-6" />
</symbol><symbol id="info" viewBox="0 0 24 24">
  <circle cx="12" cy="12" r="10" />
  <path d="M12 16v-4" />
  <path d="M12 8h.01" />
</symbol><symbol id="phone" viewBox="0 0 24 24">
  <rect width="14" height="20" x="5" y="2" rx="2" ry="2" />
  <path d="M12 18h.01" />
</symbol><symbol id="target" viewBox="0 0 24 24">
  <circle cx="12" cy="12" r="10" />
  <circle cx="12" cy="12" r="6" />
  <circle cx="12" cy="12" r="2" />
</symbol><symbol id="leaf" viewBox="0 0 24 24">
  <path d="M11 20a10 10 0 0010-10 25.9 25.9 0 00-1.04-7.281 1 1 0 00-1.755-.325C15.833 5.5 13 5.5 9.8 6.1A7 7 0 0011 20" />
  <path d="M2 21a5 5 0 012.911-4.544C7.613 15.212 8.351 15.24 11 13" />
</symbol></svg>